<?xml version="1.0" encoding="UTF-8" standalone="no"?>
<svg
   xmlns:dc="http://purl.org/dc/elements/1.1/"
   xmlns:cc="http://creativecommons.org/ns#"
   xmlns:rdf="http://www.w3.org/1999/02/22-rdf-syntax-ns#"
   xmlns:svg="http://www.w3.org/2000/svg"
   xmlns="http://www.w3.org/2000/svg"
   xmlns:xlink="http://www.w3.org/1999/xlink"
   xmlns:sodipodi="http://sodipodi.sourceforge.net/DTD/sodipodi-0.dtd"
   xmlns:inkscape="http://www.inkscape.org/namespaces/inkscape"
   width="237.74644mm"
   height="53.376514mm"
   viewBox="0 0 237.74644 53.376514"
   version="1.1"
   id="svg8"
   sodipodi:docname="db_parte_ricerca.svg"
   inkscape:version="1.0.2 (e86c870879, 2021-01-15)">
  <defs
     id="defs2">
    <g
       id="g2588">
      <symbol
         overflow="visible"
         id="symbol6174">
        <path
           style="stroke:none"
           d=""
           id="path1207" />
      </symbol>
      <symbol
         overflow="visible"
         id="symbol3121">
        <path
           style="stroke:none"
           d="m 1.140625,-3.546875 v 3.078125 h -0.6875 V 0 c 0.28125,-0.015625 0.875,-0.03125 1.25,-0.03125 0.390625,0 0.984375,0.015625 1.25,0.03125 v -0.46875 h -0.6875 v -2.078125 c 0,-1.09375 0.875,-1.578125 1.5,-1.578125 0.328125,0 0.546875,0.203125 0.546875,0.96875 v 2.6875 H 3.625 V 0 c 0.28125,-0.015625 0.875,-0.03125 1.265625,-0.03125 0.390625,0 0.96875,0.015625 1.25,0.03125 v -0.46875 h -0.6875 V -2.546875 C 5.453125,-3.640625 6.3125,-4.125 6.9375,-4.125 7.28125,-4.125 7.5,-3.921875 7.5,-3.15625 v 2.6875 H 6.8125 V 0 c 0.28125,-0.015625 0.875,-0.03125 1.25,-0.03125 0.390625,0 0.984375,0.015625 1.265625,0.03125 v -0.46875 h -0.6875 v -2.578125 c 0,-1.03125 -0.515625,-1.4375 -1.546875,-1.4375 -0.90625,0 -1.421875,0.5 -1.6875,0.953125 -0.1875,-0.921875 -1.109375,-0.953125 -1.484375,-0.953125 -0.875,0 -1.4375,0.453125 -1.765625,1.078125 V -4.484375 L 0.453125,-4.40625 v 0.46875 c 0.609375,0 0.6875,0 0.6875,0.390625 z m 0,0"
           id="path1459" />
      </symbol>
      <symbol
         overflow="visible"
         id="symbol7394">
        <path
           style="stroke:none"
           d="M 4.359375,-0.71875 V 0.0625 L 6.125,0 v -0.46875 c -0.609375,0 -0.6875,0 -0.6875,-0.390625 v -3.625 L 3.625,-4.40625 v 0.46875 c 0.609375,0 0.6875,0 0.6875,0.390625 v 1.90625 c 0,0.8125 -0.515625,1.34375 -1.234375,1.34375 -0.78125,0 -0.8125,-0.25 -0.8125,-0.796875 v -3.390625 l -1.8125,0.078125 v 0.46875 c 0.609375,0 0.6875,0 0.6875,0.390625 v 2.328125 c 0,1.0625 0.796875,1.28125 1.796875,1.28125 0.25,0 0.96875,0 1.421875,-0.78125 z m 0,0"
           id="path2583" />
      </symbol>
      <symbol
         overflow="visible"
         id="symbol8842">
        <path
           style="stroke:none"
           d="M 2.109375,-2.9375 C 1.734375,-3 1.09375,-3.109375 1.09375,-3.578125 c 0,-0.625 0.921875,-0.625 1.109375,-0.625 0.75,0 1.125,0.296875 1.171875,0.84375 0.015625,0.15625 0.03125,0.203125 0.234375,0.203125 0.234375,0 0.234375,-0.046875 0.234375,-0.28125 v -0.796875 c 0,-0.1875 0,-0.28125 -0.171875,-0.28125 -0.046875,0 -0.0625,0 -0.453125,0.1875 -0.265625,-0.125 -0.609375,-0.1875 -1,-0.1875 -0.3125,0 -1.84375,0 -1.84375,1.3125 0,0.390625 0.203125,0.65625 0.40625,0.828125 0.390625,0.34375 0.78125,0.40625 1.546875,0.546875 0.359375,0.0625 1.09375,0.1875 1.09375,0.78125 0,0.75 -0.90625,0.75 -1.125,0.75 -1.0625,0 -1.3125,-0.734375 -1.4375,-1.15625 C 0.8125,-1.59375 0.75,-1.59375 0.625,-1.59375 c -0.25,0 -0.25,0.0625 -0.25,0.28125 v 1.09375 c 0,0.1875 0,0.28125 0.1875,0.28125 0.0625,0 0.078125,0 0.296875,-0.15625 0.015625,0 0.234375,-0.140625 0.25,-0.171875 0.46875,0.328125 0.984375,0.328125 1.1875,0.328125 0.3125,0 1.84375,0 1.84375,-1.453125 0,-0.4375 -0.203125,-0.78125 -0.546875,-1.0625 C 3.203125,-2.734375 2.875,-2.796875 2.109375,-2.9375 Z m 0,0"
           id="path2620" />
      </symbol>
      <symbol
         overflow="visible"
         id="symbol5761">
        <path
           style="stroke:none"
           d="M 2.234375,-4.484375 0.5,-4.40625 v 0.46875 c 0.59375,0 0.65625,0 0.65625,0.390625 V -0.46875 H 0.46875 V 0 C 0.78125,-0.015625 1.265625,-0.03125 1.6875,-0.03125 1.984375,-0.03125 2.5,-0.015625 2.84375,0 V -0.46875 H 2.234375 Z m 0.09375,-1.671875 c 0,-0.4375 -0.359375,-0.765625 -0.765625,-0.765625 -0.4375,0 -0.78125,0.34375 -0.78125,0.765625 0,0.4375 0.34375,0.78125 0.78125,0.78125 0.40625,0 0.765625,-0.34375 0.765625,-0.78125 z m 0,0"
           id="path9855" />
      </symbol>
      <symbol
         overflow="visible"
         id="symbol6384">
        <path
           style="stroke:none"
           d="m 3.59375,-4.0625 c -0.1875,0.171875 -0.203125,0.375 -0.203125,0.46875 0,0.4375 0.34375,0.625 0.609375,0.625 0.3125,0 0.640625,-0.21875 0.640625,-0.625 0,-0.859375 -1.15625,-0.921875 -1.734375,-0.921875 -1.796875,0 -2.53125,1.140625 -2.53125,2.296875 0,1.328125 0.9375,2.28125 2.46875,2.28125 1.625,0 1.921875,-1.15625 1.921875,-1.234375 C 4.765625,-1.3125 4.625,-1.3125 4.53125,-1.3125 c -0.1875,0 -0.1875,0.03125 -0.25,0.15625 -0.25,0.625 -0.734375,0.8125 -1.234375,0.8125 -1.390625,0 -1.390625,-1.453125 -1.390625,-1.921875 0,-0.5625 0,-1.84375 1.28125,-1.84375 0.359375,0 0.515625,0.015625 0.65625,0.046875 z m 0,0"
           id="path3261" />
      </symbol>
      <symbol
         overflow="visible"
         id="symbol3620">
        <path
           style="stroke:none"
           d="m 1.140625,-3.546875 v 3.078125 h -0.6875 V 0 c 0.28125,-0.015625 0.875,-0.03125 1.25,-0.03125 0.390625,0 0.984375,0.015625 1.25,0.03125 v -0.46875 h -0.6875 v -2.078125 c 0,-1.09375 0.859375,-1.578125 1.5,-1.578125 0.328125,0 0.546875,0.203125 0.546875,0.96875 v 2.6875 H 3.625 V 0 c 0.265625,-0.015625 0.875,-0.03125 1.25,-0.03125 0.390625,0 0.984375,0.015625 1.25,0.03125 V -0.46875 H 5.4375 v -2.578125 c 0,-1.046875 -0.53125,-1.4375 -1.53125,-1.4375 -0.953125,0 -1.484375,0.5625 -1.75,1.078125 V -4.484375 L 0.453125,-4.40625 v 0.46875 c 0.609375,0 0.6875,0 0.6875,0.390625 z m 0,0"
           id="path4090" />
      </symbol>
      <symbol
         overflow="visible"
         id="symbol4778">
        <path
           style="stroke:none"
           d="m 1.171875,-4.421875 h -0.75 v 0.46875 h 0.75 v 3.484375 h -0.6875 V 0 c 0.34375,-0.015625 0.796875,-0.03125 1.25,-0.03125 0.375,0 1.015625,0 1.375,0.03125 V -0.46875 H 2.25 v -3.484375 h 1.140625 v -0.46875 H 2.1875 V -5.4375 c 0,-1.09375 0.75,-1.1875 1,-1.1875 0.046875,0 0.109375,0 0.171875,0.03125 C 3.203125,-6.484375 3.125,-6.296875 3.125,-6.109375 3.125,-5.6875 3.484375,-5.5 3.734375,-5.5 c 0.296875,0 0.625,-0.203125 0.625,-0.609375 0,-0.421875 -0.359375,-0.875 -1.140625,-0.875 -0.96875,0 -2.046875,0.421875 -2.046875,1.546875 z m 0,0"
           id="path6478" />
      </symbol>
      <symbol
         overflow="visible"
         id="symbol9516">
        <path
           style="stroke:none"
           d="m 5.40625,-2.171875 c 0,-1.34375 -0.921875,-2.34375 -2.546875,-2.34375 -1.640625,0 -2.546875,1.015625 -2.546875,2.34375 0,1.234375 0.890625,2.234375 2.546875,2.234375 1.671875,0 2.546875,-1.015625 2.546875,-2.234375 z M 2.859375,-0.34375 c -1.265625,0 -1.265625,-1.078125 -1.265625,-1.9375 0,-0.453125 0,-0.953125 0.171875,-1.296875 0.1875,-0.375 0.609375,-0.578125 1.09375,-0.578125 0.421875,0 0.84375,0.15625 1.0625,0.5 C 4.125,-3.3125 4.125,-2.765625 4.125,-2.28125 c 0,0.859375 0,1.9375 -1.265625,1.9375 z m 0,0"
           id="path8457" />
      </symbol>
    </g>
    <g
       id="g2201">
      <symbol
         overflow="visible"
         id="symbol1124">
        <path
           style="stroke:none"
           d=""
           id="path2029" />
      </symbol>
      <symbol
         overflow="visible"
         id="symbol906">
        <path
           style="stroke:none"
           d="m 2.03125,-3.359375 v -1.125 L 0.375,-4.40625 v 0.46875 c 0.609375,0 0.6875,0 0.6875,0.390625 V -0.46875 H 0.375 V 0 c 0.34375,-0.015625 0.796875,-0.03125 1.25,-0.03125 0.375,0 1.015625,0 1.375,0.03125 V -0.46875 H 2.140625 v -1.75 c 0,-0.6875 0.234375,-1.90625 1.234375,-1.90625 0,0.015625 -0.1875,0.171875 -0.1875,0.453125 0,0.40625 0.328125,0.609375 0.609375,0.609375 0.296875,0 0.609375,-0.203125 0.609375,-0.609375 0,-0.53125 -0.53125,-0.8125 -1.0625,-0.8125 -0.6875,0 -1.09375,0.5 -1.3125,1.125 z m 0,0"
           id="path4149" />
      </symbol>
      <symbol
         overflow="visible"
         id="symbol6979">
        <path
           style="stroke:none"
           d="m 4.609375,-2.171875 c 0.21875,0 0.3125,0 0.3125,-0.265625 0,-0.3125 -0.0625,-1.046875 -0.5625,-1.546875 C 4,-4.34375 3.46875,-4.515625 2.78125,-4.515625 c -1.59375,0 -2.46875,1.03125 -2.46875,2.265625 0,1.34375 1,2.3125 2.609375,2.3125 1.578125,0 2,-1.0625 2,-1.234375 0,-0.171875 -0.1875,-0.171875 -0.234375,-0.171875 -0.171875,0 -0.1875,0.046875 -0.25,0.203125 -0.203125,0.484375 -0.78125,0.796875 -1.421875,0.796875 -1.40625,0 -1.421875,-1.328125 -1.421875,-1.828125 z M 1.59375,-2.5 C 1.609375,-2.890625 1.625,-3.3125 1.828125,-3.640625 2.09375,-4.03125 2.5,-4.15625 2.78125,-4.15625 c 1.171875,0 1.1875,1.3125 1.203125,1.65625 z m 0,0"
           id="path7984" />
      </symbol>
      <symbol
         overflow="visible"
         id="symbol1685">
        <path
           style="stroke:none"
           d="m 3.59375,-4.0625 c -0.1875,0.171875 -0.203125,0.375 -0.203125,0.46875 0,0.4375 0.34375,0.625 0.609375,0.625 0.3125,0 0.640625,-0.21875 0.640625,-0.625 0,-0.859375 -1.15625,-0.921875 -1.734375,-0.921875 -1.796875,0 -2.53125,1.140625 -2.53125,2.296875 0,1.328125 0.9375,2.28125 2.46875,2.28125 1.625,0 1.921875,-1.15625 1.921875,-1.234375 C 4.765625,-1.3125 4.625,-1.3125 4.53125,-1.3125 c -0.1875,0 -0.1875,0.03125 -0.25,0.15625 -0.25,0.625 -0.734375,0.8125 -1.234375,0.8125 -1.390625,0 -1.390625,-1.453125 -1.390625,-1.921875 0,-0.5625 0,-1.84375 1.28125,-1.84375 0.359375,0 0.515625,0.015625 0.65625,0.046875 z m 0,0"
           id="path4184" />
      </symbol>
      <symbol
         overflow="visible"
         id="symbol5517">
        <path
           style="stroke:none"
           d="m 5.40625,-2.171875 c 0,-1.34375 -0.921875,-2.34375 -2.546875,-2.34375 -1.640625,0 -2.546875,1.015625 -2.546875,2.34375 0,1.234375 0.890625,2.234375 2.546875,2.234375 1.671875,0 2.546875,-1.015625 2.546875,-2.234375 z M 2.859375,-0.34375 c -1.265625,0 -1.265625,-1.078125 -1.265625,-1.9375 0,-0.453125 0,-0.953125 0.171875,-1.296875 0.1875,-0.375 0.609375,-0.578125 1.09375,-0.578125 0.421875,0 0.84375,0.15625 1.0625,0.5 C 4.125,-3.3125 4.125,-2.765625 4.125,-2.28125 c 0,0.859375 0,1.9375 -1.265625,1.9375 z m 0,0"
           id="path3789" />
      </symbol>
      <symbol
         overflow="visible"
         id="symbol4354">
        <path
           style="stroke:none"
           d="M 4.171875,-0.421875 V 0.0625 L 5.984375,0 v -0.46875 c -0.609375,0 -0.6875,0 -0.6875,-0.390625 v -6.0625 L 3.53125,-6.84375 V -6.375 c 0.625,0 0.703125,0 0.703125,0.390625 v 1.953125 c -0.5,-0.390625 -1.03125,-0.453125 -1.359375,-0.453125 -1.453125,0 -2.5,0.875 -2.5,2.28125 0,1.3125 0.921875,2.265625 2.390625,2.265625 0.609375,0 1.09375,-0.234375 1.40625,-0.484375 z m 0,-3.09375 V -1.03125 C 4.03125,-0.84375 3.625,-0.296875 2.875,-0.296875 c -1.21875,0 -1.21875,-1.203125 -1.21875,-1.90625 0,-0.484375 0,-1.015625 0.25,-1.40625 C 2.203125,-4.03125 2.671875,-4.125 2.984375,-4.125 c 0.5625,0 0.96875,0.3125 1.1875,0.609375 z m 0,0"
           id="path6266" />
      </symbol>
      <symbol
         overflow="visible"
         id="symbol5972">
        <path
           style="stroke:none"
           d="M 2.234375,-4.484375 0.5,-4.40625 v 0.46875 c 0.59375,0 0.65625,0 0.65625,0.390625 V -0.46875 H 0.46875 V 0 C 0.78125,-0.015625 1.265625,-0.03125 1.6875,-0.03125 1.984375,-0.03125 2.5,-0.015625 2.84375,0 V -0.46875 H 2.234375 Z m 0.09375,-1.671875 c 0,-0.4375 -0.359375,-0.765625 -0.765625,-0.765625 -0.4375,0 -0.78125,0.34375 -0.78125,0.765625 0,0.4375 0.34375,0.78125 0.78125,0.78125 0.40625,0 0.765625,-0.34375 0.765625,-0.78125 z m 0,0"
           id="path1015" />
      </symbol>
      <symbol
         overflow="visible"
         id="symbol4756">
        <path
           style="stroke:none"
           d="m 1.140625,-3.546875 v 3.078125 h -0.6875 V 0 c 0.28125,-0.015625 0.875,-0.03125 1.25,-0.03125 0.390625,0 0.984375,0.015625 1.25,0.03125 v -0.46875 h -0.6875 v -2.078125 c 0,-1.09375 0.859375,-1.578125 1.5,-1.578125 0.328125,0 0.546875,0.203125 0.546875,0.96875 v 2.6875 H 3.625 V 0 c 0.265625,-0.015625 0.875,-0.03125 1.25,-0.03125 0.390625,0 0.984375,0.015625 1.25,0.03125 V -0.46875 H 5.4375 v -2.578125 c 0,-1.046875 -0.53125,-1.4375 -1.53125,-1.4375 -0.953125,0 -1.484375,0.5625 -1.75,1.078125 V -4.484375 L 0.453125,-4.40625 v 0.46875 c 0.609375,0 0.6875,0 0.6875,0.390625 z m 0,0"
           id="path3096" />
      </symbol>
      <symbol
         overflow="visible"
         id="symbol6392">
        <path
           style="stroke:none"
           d="m 2.546875,-1.890625 c -0.875,0 -0.875,-0.671875 -0.875,-1.125 0,-0.4375 0,-1.109375 0.875,-1.109375 0.875,0 0.875,0.671875 0.875,1.109375 0,0.453125 0,1.125 -0.875,1.125 z m -1.21875,0.09375 c 0.453125,0.234375 0.96875,0.265625 1.21875,0.265625 1.4375,0 1.984375,-0.78125 1.984375,-1.484375 0,-0.46875 -0.25,-0.796875 -0.40625,-0.953125 0.296875,-0.15625 0.515625,-0.171875 0.625,-0.1875 -0.03125,0.046875 -0.046875,0.140625 -0.046875,0.203125 0,0.25 0.171875,0.421875 0.4375,0.421875 0.25,0 0.421875,-0.1875 0.421875,-0.421875 0,-0.234375 -0.171875,-0.578125 -0.625,-0.578125 -0.15625,0 -0.625,0.03125 -1.0625,0.375 -0.171875,-0.125 -0.59375,-0.328125 -1.328125,-0.328125 -1.4375,0 -1.984375,0.78125 -1.984375,1.46875 0,0.40625 0.1875,0.828125 0.515625,1.046875 -0.28125,0.359375 -0.34375,0.6875 -0.34375,0.890625 0,0.15625 0.046875,0.640625 0.4375,0.953125 C 1.046875,-0.09375 0.3125,0.125 0.3125,0.75 0.3125,1.25 0.875,2 2.859375,2 4.625,2 5.40625,1.421875 5.40625,0.71875 c 0,-0.296875 -0.078125,-0.921875 -0.75,-1.265625 -0.5625,-0.28125 -1.15625,-0.28125 -2.109375,-0.28125 -0.265625,0 -0.71875,0 -0.765625,-0.015625 -0.453125,-0.0625 -0.5625,-0.4375 -0.5625,-0.625 0,-0.09375 0.046875,-0.25 0.109375,-0.328125 z M 1.9375,0.125 h 1.171875 c 0.3125,0 1.4375,0 1.4375,0.625 0,0.359375 -0.390625,0.890625 -1.6875,0.890625 -1.1875,0 -1.6875,-0.453125 -1.6875,-0.90625 C 1.171875,0.125 1.796875,0.125 1.9375,0.125 Z m 0,0"
           id="path6139" />
      </symbol>
      <symbol
         overflow="visible"
         id="symbol1384">
        <path
           style="stroke:none"
           d="M 2.109375,-2.9375 C 1.734375,-3 1.09375,-3.109375 1.09375,-3.578125 c 0,-0.625 0.921875,-0.625 1.109375,-0.625 0.75,0 1.125,0.296875 1.171875,0.84375 0.015625,0.15625 0.03125,0.203125 0.234375,0.203125 0.234375,0 0.234375,-0.046875 0.234375,-0.28125 v -0.796875 c 0,-0.1875 0,-0.28125 -0.171875,-0.28125 -0.046875,0 -0.0625,0 -0.453125,0.1875 -0.265625,-0.125 -0.609375,-0.1875 -1,-0.1875 -0.3125,0 -1.84375,0 -1.84375,1.3125 0,0.390625 0.203125,0.65625 0.40625,0.828125 0.390625,0.34375 0.78125,0.40625 1.546875,0.546875 0.359375,0.0625 1.09375,0.1875 1.09375,0.78125 0,0.75 -0.90625,0.75 -1.125,0.75 -1.0625,0 -1.3125,-0.734375 -1.4375,-1.15625 C 0.8125,-1.59375 0.75,-1.59375 0.625,-1.59375 c -0.25,0 -0.25,0.0625 -0.25,0.28125 v 1.09375 c 0,0.1875 0,0.28125 0.1875,0.28125 0.0625,0 0.078125,0 0.296875,-0.15625 0.015625,0 0.234375,-0.140625 0.25,-0.171875 0.46875,0.328125 0.984375,0.328125 1.1875,0.328125 0.3125,0 1.84375,0 1.84375,-1.453125 0,-0.4375 -0.203125,-0.78125 -0.546875,-1.0625 C 3.203125,-2.734375 2.875,-2.796875 2.109375,-2.9375 Z m 0,0"
           id="path2051" />
      </symbol>
    </g>
    <g
       id="g6630">
      <symbol
         overflow="visible"
         id="symbol3122">
        <path
           style="stroke:none"
           d=""
           id="path8607" />
      </symbol>
      <symbol
         overflow="visible"
         id="symbol752">
        <path
           style="stroke:none"
           d="m 2.03125,-3.359375 v -1.125 L 0.375,-4.40625 v 0.46875 c 0.609375,0 0.6875,0 0.6875,0.390625 V -0.46875 H 0.375 V 0 c 0.34375,-0.015625 0.796875,-0.03125 1.25,-0.03125 0.375,0 1.015625,0 1.375,0.03125 V -0.46875 H 2.140625 v -1.75 c 0,-0.6875 0.234375,-1.90625 1.234375,-1.90625 0,0.015625 -0.1875,0.171875 -0.1875,0.453125 0,0.40625 0.328125,0.609375 0.609375,0.609375 0.296875,0 0.609375,-0.203125 0.609375,-0.609375 0,-0.53125 -0.53125,-0.8125 -1.0625,-0.8125 -0.6875,0 -1.09375,0.5 -1.3125,1.125 z m 0,0"
           id="path3101" />
      </symbol>
      <symbol
         overflow="visible"
         id="symbol5211">
        <path
           style="stroke:none"
           d="m 4.609375,-2.171875 c 0.21875,0 0.3125,0 0.3125,-0.265625 0,-0.3125 -0.0625,-1.046875 -0.5625,-1.546875 C 4,-4.34375 3.46875,-4.515625 2.78125,-4.515625 c -1.59375,0 -2.46875,1.03125 -2.46875,2.265625 0,1.34375 1,2.3125 2.609375,2.3125 1.578125,0 2,-1.0625 2,-1.234375 0,-0.171875 -0.1875,-0.171875 -0.234375,-0.171875 -0.171875,0 -0.1875,0.046875 -0.25,0.203125 -0.203125,0.484375 -0.78125,0.796875 -1.421875,0.796875 -1.40625,0 -1.421875,-1.328125 -1.421875,-1.828125 z M 1.59375,-2.5 C 1.609375,-2.890625 1.625,-3.3125 1.828125,-3.640625 2.09375,-4.03125 2.5,-4.15625 2.78125,-4.15625 c 1.171875,0 1.1875,1.3125 1.203125,1.65625 z m 0,0"
           id="path6557" />
      </symbol>
      <symbol
         overflow="visible"
         id="symbol4174">
        <path
           style="stroke:none"
           d="m 3.59375,-4.0625 c -0.1875,0.171875 -0.203125,0.375 -0.203125,0.46875 0,0.4375 0.34375,0.625 0.609375,0.625 0.3125,0 0.640625,-0.21875 0.640625,-0.625 0,-0.859375 -1.15625,-0.921875 -1.734375,-0.921875 -1.796875,0 -2.53125,1.140625 -2.53125,2.296875 0,1.328125 0.9375,2.28125 2.46875,2.28125 1.625,0 1.921875,-1.15625 1.921875,-1.234375 C 4.765625,-1.3125 4.625,-1.3125 4.53125,-1.3125 c -0.1875,0 -0.1875,0.03125 -0.25,0.15625 -0.25,0.625 -0.734375,0.8125 -1.234375,0.8125 -1.390625,0 -1.390625,-1.453125 -1.390625,-1.921875 0,-0.5625 0,-1.84375 1.28125,-1.84375 0.359375,0 0.515625,0.015625 0.65625,0.046875 z m 0,0"
           id="path5231" />
      </symbol>
      <symbol
         overflow="visible"
         id="symbol7474">
        <path
           style="stroke:none"
           d="m 5.40625,-2.171875 c 0,-1.34375 -0.921875,-2.34375 -2.546875,-2.34375 -1.640625,0 -2.546875,1.015625 -2.546875,2.34375 0,1.234375 0.890625,2.234375 2.546875,2.234375 1.671875,0 2.546875,-1.015625 2.546875,-2.234375 z M 2.859375,-0.34375 c -1.265625,0 -1.265625,-1.078125 -1.265625,-1.9375 0,-0.453125 0,-0.953125 0.171875,-1.296875 0.1875,-0.375 0.609375,-0.578125 1.09375,-0.578125 0.421875,0 0.84375,0.15625 1.0625,0.5 C 4.125,-3.3125 4.125,-2.765625 4.125,-2.28125 c 0,0.859375 0,1.9375 -1.265625,1.9375 z m 0,0"
           id="path3345" />
      </symbol>
      <symbol
         overflow="visible"
         id="symbol2399">
        <path
           style="stroke:none"
           d="M 4.171875,-0.421875 V 0.0625 L 5.984375,0 v -0.46875 c -0.609375,0 -0.6875,0 -0.6875,-0.390625 v -6.0625 L 3.53125,-6.84375 V -6.375 c 0.625,0 0.703125,0 0.703125,0.390625 v 1.953125 c -0.5,-0.390625 -1.03125,-0.453125 -1.359375,-0.453125 -1.453125,0 -2.5,0.875 -2.5,2.28125 0,1.3125 0.921875,2.265625 2.390625,2.265625 0.609375,0 1.09375,-0.234375 1.40625,-0.484375 z m 0,-3.09375 V -1.03125 C 4.03125,-0.84375 3.625,-0.296875 2.875,-0.296875 c -1.21875,0 -1.21875,-1.203125 -1.21875,-1.90625 0,-0.484375 0,-1.015625 0.25,-1.40625 C 2.203125,-4.03125 2.671875,-4.125 2.984375,-4.125 c 0.5625,0 0.96875,0.3125 1.1875,0.609375 z m 0,0"
           id="path1495" />
      </symbol>
      <symbol
         overflow="visible"
         id="symbol1662">
        <path
           style="stroke:none"
           d="M 2.234375,-4.484375 0.5,-4.40625 v 0.46875 c 0.59375,0 0.65625,0 0.65625,0.390625 V -0.46875 H 0.46875 V 0 C 0.78125,-0.015625 1.265625,-0.03125 1.6875,-0.03125 1.984375,-0.03125 2.5,-0.015625 2.84375,0 V -0.46875 H 2.234375 Z m 0.09375,-1.671875 c 0,-0.4375 -0.359375,-0.765625 -0.765625,-0.765625 -0.4375,0 -0.78125,0.34375 -0.78125,0.765625 0,0.4375 0.34375,0.78125 0.78125,0.78125 0.40625,0 0.765625,-0.34375 0.765625,-0.78125 z m 0,0"
           id="path8190" />
      </symbol>
      <symbol
         overflow="visible"
         id="symbol2249">
        <path
           style="stroke:none"
           d="m 1.140625,-3.546875 v 3.078125 h -0.6875 V 0 c 0.28125,-0.015625 0.875,-0.03125 1.25,-0.03125 0.390625,0 0.984375,0.015625 1.25,0.03125 v -0.46875 h -0.6875 v -2.078125 c 0,-1.09375 0.859375,-1.578125 1.5,-1.578125 0.328125,0 0.546875,0.203125 0.546875,0.96875 v 2.6875 H 3.625 V 0 c 0.265625,-0.015625 0.875,-0.03125 1.25,-0.03125 0.390625,0 0.984375,0.015625 1.25,0.03125 V -0.46875 H 5.4375 v -2.578125 c 0,-1.046875 -0.53125,-1.4375 -1.53125,-1.4375 -0.953125,0 -1.484375,0.5625 -1.75,1.078125 V -4.484375 L 0.453125,-4.40625 v 0.46875 c 0.609375,0 0.6875,0 0.6875,0.390625 z m 0,0"
           id="path8045" />
      </symbol>
      <symbol
         overflow="visible"
         id="symbol201">
        <path
           style="stroke:none"
           d="m 2.546875,-1.890625 c -0.875,0 -0.875,-0.671875 -0.875,-1.125 0,-0.4375 0,-1.109375 0.875,-1.109375 0.875,0 0.875,0.671875 0.875,1.109375 0,0.453125 0,1.125 -0.875,1.125 z m -1.21875,0.09375 c 0.453125,0.234375 0.96875,0.265625 1.21875,0.265625 1.4375,0 1.984375,-0.78125 1.984375,-1.484375 0,-0.46875 -0.25,-0.796875 -0.40625,-0.953125 0.296875,-0.15625 0.515625,-0.171875 0.625,-0.1875 -0.03125,0.046875 -0.046875,0.140625 -0.046875,0.203125 0,0.25 0.171875,0.421875 0.4375,0.421875 0.25,0 0.421875,-0.1875 0.421875,-0.421875 0,-0.234375 -0.171875,-0.578125 -0.625,-0.578125 -0.15625,0 -0.625,0.03125 -1.0625,0.375 -0.171875,-0.125 -0.59375,-0.328125 -1.328125,-0.328125 -1.4375,0 -1.984375,0.78125 -1.984375,1.46875 0,0.40625 0.1875,0.828125 0.515625,1.046875 -0.28125,0.359375 -0.34375,0.6875 -0.34375,0.890625 0,0.15625 0.046875,0.640625 0.4375,0.953125 C 1.046875,-0.09375 0.3125,0.125 0.3125,0.75 0.3125,1.25 0.875,2 2.859375,2 4.625,2 5.40625,1.421875 5.40625,0.71875 c 0,-0.296875 -0.078125,-0.921875 -0.75,-1.265625 -0.5625,-0.28125 -1.15625,-0.28125 -2.109375,-0.28125 -0.265625,0 -0.71875,0 -0.765625,-0.015625 -0.453125,-0.0625 -0.5625,-0.4375 -0.5625,-0.625 0,-0.09375 0.046875,-0.25 0.109375,-0.328125 z M 1.9375,0.125 h 1.171875 c 0.3125,0 1.4375,0 1.4375,0.625 0,0.359375 -0.390625,0.890625 -1.6875,0.890625 -1.1875,0 -1.6875,-0.453125 -1.6875,-0.90625 C 1.171875,0.125 1.796875,0.125 1.9375,0.125 Z m 0,0"
           id="path7536" />
      </symbol>
    </g>
    <g
       id="g5871">
      <symbol
         overflow="visible"
         id="symbol3519">
        <path
           style="stroke:none"
           d=""
           id="path6342" />
      </symbol>
      <symbol
         overflow="visible"
         id="symbol6302">
        <path
           style="stroke:none"
           d="m 2.578125,-2.875 c 0,-0.03125 0.453125,-1.3125 1.3125,-1.3125 0.046875,0 0.328125,0 0.53125,0.140625 C 4.0625,-3.9375 4.03125,-3.625 4.03125,-3.5625 c 0,0.125 0.09375,0.3125 0.359375,0.3125 0.171875,0 0.484375,-0.140625 0.484375,-0.53125 0,-0.515625 -0.640625,-0.625 -0.984375,-0.625 -0.6875,0 -1.046875,0.5 -1.203125,0.71875 -0.109375,-0.53125 -0.5,-0.71875 -0.828125,-0.71875 -0.359375,0 -0.546875,0.234375 -0.71875,0.53125 -0.1875,0.390625 -0.3125,0.984375 -0.3125,1 0,0.109375 0.09375,0.109375 0.15625,0.109375 0.125,0 0.125,-0.015625 0.1875,-0.234375 0.171875,-0.703125 0.359375,-1.1875 0.671875,-1.1875 0.265625,0 0.265625,0.296875 0.265625,0.40625 0,0.15625 -0.03125,0.34375 -0.078125,0.5 l -0.75,2.984375 c -0.015625,0.0625 -0.03125,0.125 -0.03125,0.140625 0,0.109375 0.078125,0.265625 0.28125,0.265625 0.296875,0 0.375,-0.28125 0.390625,-0.375 z m 0,0"
           id="path5298" />
      </symbol>
      <symbol
         overflow="visible"
         id="symbol5923">
        <path
           style="stroke:none"
           d="m 3.296875,-1.421875 c 0,-0.109375 -0.078125,-0.109375 -0.140625,-0.109375 -0.140625,0 -0.140625,0.03125 -0.171875,0.171875 -0.078125,0.296875 -0.359375,1.25 -0.9375,1.25 -0.078125,0 -0.21875,-0.015625 -0.21875,-0.28125 0,-0.25 0.140625,-0.59375 0.265625,-0.953125 l 0.640625,-1.703125 c 0.09375,-0.296875 0.109375,-0.375 0.109375,-0.5625 0,-0.546875 -0.375,-0.796875 -0.734375,-0.796875 -0.9375,0 -1.28125,1.484375 -1.28125,1.53125 0,0.109375 0.09375,0.109375 0.15625,0.109375 0.125,0 0.125,-0.03125 0.171875,-0.171875 0.09375,-0.328125 0.34375,-1.25 0.921875,-1.25 0.109375,0 0.21875,0.046875 0.21875,0.28125 0,0.234375 -0.109375,0.53125 -0.171875,0.71875 L 1.828125,-2.359375 C 1.6875,-2.03125 1.578125,-1.703125 1.453125,-1.375 1.3125,-1 1.28125,-0.890625 1.28125,-0.6875 c 0,0.390625 0.234375,0.796875 0.75,0.796875 0.9375,0 1.265625,-1.5 1.265625,-1.53125 z M 3.25,-6.203125 c 0,-0.25 -0.203125,-0.34375 -0.34375,-0.34375 -0.203125,0 -0.46875,0.203125 -0.46875,0.484375 0,0.25 0.1875,0.328125 0.328125,0.328125 0.203125,0 0.484375,-0.1875 0.484375,-0.46875 z m 0,0"
           id="path7873" />
      </symbol>
      <symbol
         overflow="visible"
         id="symbol9823">
        <path
           style="stroke:none"
           d="m 2.765625,-3.984375 h 0.8125 c 0.171875,0 0.265625,0 0.265625,-0.1875 0,-0.125 -0.078125,-0.125 -0.25,-0.125 H 2.828125 c 0.125,-0.734375 0.15625,-0.921875 0.3125,-1.609375 0.078125,-0.375 0.1875,-0.90625 0.546875,-0.90625 0.078125,0 0.296875,0.03125 0.421875,0.1875 -0.296875,0.046875 -0.4375,0.28125 -0.4375,0.484375 0,0.21875 0.171875,0.3125 0.328125,0.3125 0.25,0 0.5,-0.1875 0.5,-0.546875 0,-0.421875 -0.40625,-0.65625 -0.8125,-0.65625 -0.96875,0 -1.21875,1.296875 -1.296875,1.640625 L 2.1875,-4.296875 H 1.53125 c -0.171875,0 -0.28125,0 -0.28125,0.203125 0,0.109375 0.109375,0.109375 0.25,0.109375 h 0.625 l -0.734375,3.71875 C 1.28125,0.34375 1.171875,0.75 1.109375,0.96875 1.03125,1.3125 0.90625,1.828125 0.546875,1.828125 c -0.09375,0 -0.28125,-0.03125 -0.390625,-0.1875 0.296875,-0.046875 0.4375,-0.28125 0.4375,-0.484375 0,-0.21875 -0.1875,-0.3125 -0.34375,-0.3125 -0.25,0 -0.5,0.1875 -0.5,0.546875 0,0.4375 0.421875,0.65625 0.796875,0.65625 1.03125,0 1.453125,-2.09375 1.515625,-2.453125 z m 0,0"
           id="path1346" />
      </symbol>
      <symbol
         overflow="visible"
         id="symbol8088">
        <path
           style="stroke:none"
           d="m 2.375,-2.296875 c 0.3125,0 0.96875,-0.03125 1.453125,-0.21875 0.78125,-0.328125 0.78125,-0.96875 0.78125,-1.046875 0,-0.453125 -0.359375,-0.84375 -1,-0.84375 -1.046875,0 -2.46875,1 -2.46875,2.765625 0,0.90625 0.46875,1.75 1.421875,1.75 1.28125,0 2.109375,-1 2.109375,-1.140625 0,-0.0625 -0.09375,-0.171875 -0.171875,-0.171875 -0.03125,0 -0.046875,0.015625 -0.125,0.109375 -0.734375,0.9375 -1.625,0.984375 -1.796875,0.984375 -0.640625,0 -0.75,-0.703125 -0.75,-1.09375 0,-0.375 0.09375,-0.828125 0.171875,-1.09375 z m -0.328125,-0.21875 c 0.4375,-1.640625 1.46875,-1.671875 1.5625,-1.671875 0.390625,0 0.625,0.265625 0.625,0.609375 0,1.0625 -1.640625,1.0625 -1.96875,1.0625 z m 0,0"
           id="path5468" />
      </symbol>
      <symbol
         overflow="visible"
         id="symbol5145">
        <path
           style="stroke:none"
           d="M 2.59375,-3.984375 H 3.4375 c 0.171875,0 0.28125,0 0.28125,-0.1875 0,-0.125 -0.09375,-0.125 -0.25,-0.125 H 2.671875 l 0.375,-1.46875 c 0.03125,-0.140625 0.03125,-0.171875 0.03125,-0.21875 0,-0.203125 -0.171875,-0.25 -0.265625,-0.25 -0.25,0 -0.34375,0.203125 -0.390625,0.359375 L 2.03125,-4.296875 H 1.1875 c -0.171875,0 -0.28125,0 -0.28125,0.1875 0,0.125 0.09375,0.125 0.25,0.125 H 1.953125 L 1.234375,-1.125 C 1.21875,-1.09375 1.1875,-0.921875 1.1875,-0.78125 c 0,0.484375 0.328125,0.890625 0.84375,0.890625 1.015625,0 1.515625,-1.484375 1.515625,-1.53125 0,-0.109375 -0.078125,-0.109375 -0.140625,-0.109375 -0.125,0 -0.125,0.015625 -0.203125,0.203125 -0.1875,0.46875 -0.578125,1.21875 -1.15625,1.21875 -0.265625,0 -0.265625,-0.25 -0.265625,-0.40625 0,-0.078125 0,-0.234375 0.078125,-0.515625 z m 0,0"
           id="path2124" />
      </symbol>
      <symbol
         overflow="visible"
         id="symbol451">
        <path
           style="stroke:none"
           d="m 3.484375,-0.59375 c 0.109375,0.5 0.46875,0.703125 0.828125,0.703125 0.359375,0 0.578125,-0.25 0.71875,-0.5625 0.1875,-0.375 0.296875,-0.953125 0.296875,-0.96875 0,-0.109375 -0.078125,-0.109375 -0.140625,-0.109375 -0.125,0 -0.140625,0.015625 -0.1875,0.234375 -0.140625,0.5625 -0.328125,1.1875 -0.671875,1.1875 -0.265625,0 -0.265625,-0.265625 -0.265625,-0.40625 0,-0.078125 0,-0.234375 0.078125,-0.515625 L 4.8125,-3.734375 c 0.046875,-0.140625 0.046875,-0.15625 0.046875,-0.21875 0,-0.203125 -0.171875,-0.25 -0.28125,-0.25 -0.3125,0 -0.375,0.328125 -0.390625,0.390625 C 4,-4.25 3.671875,-4.40625 3.359375,-4.40625 c -1.109375,0 -2.28125,1.515625 -2.28125,2.96875 0,0.84375 0.453125,1.546875 1.203125,1.546875 0.359375,0 0.796875,-0.203125 1.203125,-0.703125 z m 0.53125,-2.53125 -0.46875,1.890625 c -0.078125,0.3125 -0.703125,1.125 -1.25,1.125 C 1.828125,-0.109375 1.75,-0.703125 1.75,-1 1.75,-1.5 2.0625,-2.65625 2.25,-3.078125 2.5,-3.6875 2.953125,-4.1875 3.359375,-4.1875 c 0.4375,0 0.6875,0.515625 0.6875,0.9375 0,0.015625 -0.015625,0.0625 -0.03125,0.125 z m 0,0"
           id="path1580" />
      </symbol>
    </g>
    <g
       id="g3307">
      <symbol
         overflow="visible"
         id="symbol5051">
        <path
           style="stroke:none"
           d=""
           id="path6476" />
      </symbol>
      <symbol
         overflow="visible"
         id="symbol3494">
        <path
           style="stroke:none"
           d="m 4.5625,-6.390625 c 0.015625,-0.03125 0.03125,-0.109375 0.03125,-0.125 0,-0.078125 -0.0625,-0.125 -0.125,-0.125 -0.046875,0 -0.0625,0.015625 -0.1875,0.15625 -0.765625,1.03125 -1.453125,1.09375 -1.75,1.125 C 2.484375,-5.34375 2.375,-5.328125 2.375,-5.15625 c 0,0.109375 0.125,0.109375 0.15625,0.109375 0.15625,0 0.640625,-0.0625 1.109375,-0.40625 L 2.46875,-0.734375 C 2.375,-0.40625 2.296875,-0.3125 1.53125,-0.3125 H 1.453125 c -0.171875,0 -0.28125,0 -0.28125,0.1875 C 1.171875,0 1.28125,0 1.3125,0 1.75,0 2.1875,-0.03125 2.625,-0.03125 3.0625,-0.03125 3.515625,0 3.953125,0 4.03125,0 4.15625,0 4.15625,-0.1875 c 0,-0.125 -0.09375,-0.125 -0.265625,-0.125 H 3.8125 c -0.125,0 -0.296875,0 -0.421875,-0.015625 -0.21875,-0.03125 -0.28125,-0.046875 -0.28125,-0.1875 0,-0.046875 0.015625,-0.140625 0.03125,-0.1875 z m 0,0"
           id="path5265" />
      </symbol>
      <symbol
         overflow="visible"
         id="symbol5297">
        <path
           style="stroke:none"
           d="M 1.96875,-0.15625 C 1.828125,0.625 1.328125,1.25 0.859375,1.65625 c -0.125,0.125 -0.125,0.125 -0.125,0.171875 0,0.03125 0.015625,0.09375 0.09375,0.09375 C 1,1.921875 2.234375,0.71875 2.234375,-0.46875 2.234375,-0.796875 2.09375,-1.0625 1.78125,-1.0625 1.375,-1.0625 1.125,-0.703125 1.125,-0.421875 1.125,-0.09375 1.359375,0 1.5625,0 1.765625,0 1.921875,-0.109375 1.96875,-0.15625 Z m 0,0"
           id="path6729" />
      </symbol>
      <symbol
         overflow="visible"
         id="symbol5625">
        <path
           style="stroke:none"
           d="M 2.296875,-1.75 C 2.34375,-1.96875 2.40625,-2.171875 2.453125,-2.390625 2.578125,-2.90625 2.578125,-2.90625 2.75,-3.203125 2.890625,-3.4375 3.34375,-4.1875 4.09375,-4.1875 c 0.4375,0 0.46875,0.453125 0.46875,0.65625 0,0.625 -0.453125,1.8125 -0.578125,2.203125 -0.140625,0.34375 -0.171875,0.4375 -0.171875,0.640625 0,0.4375 0.28125,0.796875 0.765625,0.796875 0.921875,0 1.265625,-1.484375 1.265625,-1.53125 0,-0.109375 -0.078125,-0.109375 -0.15625,-0.109375 -0.125,0 -0.125,0.03125 -0.171875,0.171875 -0.078125,0.265625 -0.34375,1.25 -0.921875,1.25 -0.203125,0 -0.21875,-0.15625 -0.21875,-0.296875 0,-0.234375 0.09375,-0.5 0.1875,-0.734375 0.1875,-0.53125 0.59375,-1.65625 0.59375,-2.234375 0,-0.8125 -0.546875,-1.03125 -1.03125,-1.03125 -0.8125,0 -1.296875,0.59375 -1.421875,0.78125 C 2.625,-4.109375 2.296875,-4.40625 1.859375,-4.40625 1.5,-4.40625 1.3125,-4.171875 1.140625,-3.875 c -0.1875,0.390625 -0.3125,0.984375 -0.3125,1 0,0.109375 0.09375,0.109375 0.15625,0.109375 0.125,0 0.125,-0.015625 0.1875,-0.234375 0.171875,-0.703125 0.359375,-1.1875 0.671875,-1.1875 0.265625,0 0.265625,0.296875 0.265625,0.40625 0,0.15625 -0.03125,0.34375 -0.078125,0.5 l -0.75,2.984375 c -0.015625,0.0625 -0.03125,0.125 -0.03125,0.140625 0,0.109375 0.078125,0.265625 0.28125,0.265625 0.125,0 0.296875,-0.0625 0.359375,-0.265625 z m 0,0"
           id="path8423" />
      </symbol>
    </g>
    <g
       id="g5670">
      <symbol
         overflow="visible"
         id="symbol3769">
        <path
           style="stroke:none"
           d=""
           id="path9749" />
      </symbol>
      <symbol
         overflow="visible"
         id="symbol4284">
        <path
           style="stroke:none"
           d="m 2.9375,-6.375 c 0,-0.25 0,-0.265625 -0.234375,-0.265625 C 2.078125,-6 1.203125,-6 0.890625,-6 v 0.3125 c 0.203125,0 0.78125,0 1.296875,-0.265625 v 5.171875 c 0,0.359375 -0.03125,0.46875 -0.921875,0.46875 h -0.3125 V 0 c 0.34375,-0.03125 1.203125,-0.03125 1.609375,-0.03125 0.390625,0 1.265625,0 1.609375,0.03125 v -0.3125 h -0.3125 c -0.90625,0 -0.921875,-0.109375 -0.921875,-0.46875 z m 0,0"
           id="path9759" />
      </symbol>
      <symbol
         overflow="visible"
         id="symbol8902">
        <path
           style="stroke:none"
           d="m 2.03125,-0.015625 c 0,-0.625 -0.25,-1.046875 -0.640625,-1.046875 -0.359375,0 -0.53125,0.28125 -0.53125,0.53125 0,0.265625 0.171875,0.53125 0.53125,0.53125 0.15625,0 0.28125,-0.0625 0.375,-0.140625 L 1.78125,-0.15625 c 0.015625,0 0.015625,0 0.015625,0.140625 0,0.640625 -0.265625,1.25 -0.703125,1.71875 -0.0625,0.0625 -0.078125,0.078125 -0.078125,0.109375 0,0.078125 0.046875,0.109375 0.09375,0.109375 0.125,0 0.921875,-0.78125 0.921875,-1.9375 z m 0,0"
           id="path655" />
      </symbol>
      <symbol
         overflow="visible"
         id="symbol6815">
        <path
           style="stroke:none"
           d=""
           id="path7246" />
      </symbol>
      <symbol
         overflow="visible"
         id="symbol6222">
        <path
           style="stroke:none"
           d="m 0.875,-0.59375 c -0.03125,0.15625 -0.09375,0.390625 -0.09375,0.4375 0,0.171875 0.140625,0.265625 0.296875,0.265625 0.125,0 0.296875,-0.078125 0.375,-0.28125 0,-0.015625 0.125,-0.484375 0.1875,-0.734375 l 0.21875,-0.890625 C 1.90625,-2.03125 1.96875,-2.25 2.03125,-2.46875 c 0.03125,-0.171875 0.109375,-0.46875 0.125,-0.5 0.140625,-0.3125 0.671875,-1.21875 1.625,-1.21875 0.453125,0 0.53125,0.375 0.53125,0.703125 0,0.609375 -0.484375,1.890625 -0.640625,2.3125 C 3.578125,-0.9375 3.5625,-0.8125 3.5625,-0.703125 c 0,0.46875 0.359375,0.8125 0.828125,0.8125 0.9375,0 1.296875,-1.453125 1.296875,-1.53125 0,-0.109375 -0.078125,-0.109375 -0.109375,-0.109375 -0.109375,0 -0.109375,0.03125 -0.15625,0.1875 -0.203125,0.671875 -0.53125,1.234375 -1.015625,1.234375 -0.171875,0 -0.234375,-0.09375 -0.234375,-0.328125 0,-0.25 0.078125,-0.484375 0.171875,-0.703125 0.1875,-0.53125 0.609375,-1.625 0.609375,-2.203125 0,-0.65625 -0.421875,-1.0625 -1.140625,-1.0625 -0.90625,0 -1.390625,0.640625 -1.5625,0.875 -0.046875,-0.5625 -0.453125,-0.875 -0.921875,-0.875 -0.453125,0 -0.640625,0.390625 -0.734375,0.5625 C 0.421875,-3.5 0.296875,-2.90625 0.296875,-2.875 c 0,0.109375 0.09375,0.109375 0.109375,0.109375 0.109375,0 0.109375,-0.015625 0.171875,-0.234375 0.171875,-0.703125 0.375,-1.1875 0.734375,-1.1875 0.1875,0 0.296875,0.125 0.296875,0.453125 0,0.21875 -0.03125,0.328125 -0.15625,0.84375 z m 0,0"
           id="path8601" />
      </symbol>
    </g>
    <g
       id="g864">
      <symbol
         overflow="visible"
         id="symbol2330">
        <path
           style="stroke:none"
           d=""
           id="path7383" />
      </symbol>
      <symbol
         overflow="visible"
         id="symbol8477">
        <path
           style="stroke:none"
           d="m 2.9375,-6.375 c 0,-0.25 0,-0.265625 -0.234375,-0.265625 C 2.078125,-6 1.203125,-6 0.890625,-6 v 0.3125 c 0.203125,0 0.78125,0 1.296875,-0.265625 v 5.171875 c 0,0.359375 -0.03125,0.46875 -0.921875,0.46875 h -0.3125 V 0 c 0.34375,-0.03125 1.203125,-0.03125 1.609375,-0.03125 0.390625,0 1.265625,0 1.609375,0.03125 v -0.3125 h -0.3125 c -0.90625,0 -0.921875,-0.109375 -0.921875,-0.46875 z m 0,0"
           id="path9666" />
      </symbol>
      <symbol
         overflow="visible"
         id="symbol4129">
        <path
           style="stroke:none"
           d="m 2.03125,-0.015625 c 0,-0.625 -0.25,-1.046875 -0.640625,-1.046875 -0.359375,0 -0.53125,0.28125 -0.53125,0.53125 0,0.265625 0.171875,0.53125 0.53125,0.53125 0.15625,0 0.28125,-0.0625 0.375,-0.140625 L 1.78125,-0.15625 c 0.015625,0 0.015625,0 0.015625,0.140625 0,0.640625 -0.265625,1.25 -0.703125,1.71875 -0.0625,0.0625 -0.078125,0.078125 -0.078125,0.109375 0,0.078125 0.046875,0.109375 0.09375,0.109375 0.125,0 0.921875,-0.78125 0.921875,-1.9375 z m 0,0"
           id="path8229" />
      </symbol>
    </g>
  </defs>
  <sodipodi:namedview
     id="base"
     pagecolor="#ffffff"
     bordercolor="#666666"
     borderopacity="1.0"
     inkscape:pageopacity="0.0"
     inkscape:pageshadow="2"
     inkscape:zoom="0.98994949"
     inkscape:cx="501.14989"
     inkscape:cy="215.68406"
     inkscape:document-units="mm"
     inkscape:current-layer="layer1"
     inkscape:document-rotation="0"
     showgrid="false"
     inkscape:window-width="1440"
     inkscape:window-height="849"
     inkscape:window-x="1440"
     inkscape:window-y="27"
     inkscape:window-maximized="1"
     fit-margin-top="0"
     fit-margin-left="0"
     fit-margin-right="0"
     fit-margin-bottom="0" />
  <metadata
     id="metadata5">
    <rdf:RDF>
      <cc:Work
         rdf:about="">
        <dc:format>image/svg+xml</dc:format>
        <dc:type
           rdf:resource="http://purl.org/dc/dcmitype/StillImage" />
        <dc:title></dc:title>
      </cc:Work>
    </rdf:RDF>
  </metadata>
  <g
     inkscape:label="Livello 1"
     inkscape:groupmode="layer"
     id="layer1"
     transform="translate(-17.087344,-10.29901)">
    <g
       id="g1265"
       transform="translate(0,-0.13098116)">
      <g
         inkscape:label=""
         transform="translate(-69.350731,-41.383811)"
         id="g44">
        <g
           id="g3983">
          <g
             style="fill:#000000;fill-opacity:1"
             id="g7301">
            <use
               xlink:href="#symbol3121"
               x="91.925003"
               y="81.962997"
               id="use7726"
               width="100%"
               height="100%" />
          </g>
          <g
             style="fill:#000000;fill-opacity:1"
             id="g835">
            <use
               xlink:href="#symbol7394"
               x="101.15336"
               y="81.962997"
               id="use6396"
               width="100%"
               height="100%" />
            <use
               xlink:href="#symbol8842"
               x="107.51846"
               y="81.962997"
               id="use257"
               width="100%"
               height="100%" />
            <use
               xlink:href="#symbol5761"
               x="112.0375"
               y="81.962997"
               id="use8892"
               width="100%"
               height="100%" />
            <use
               xlink:href="#symbol6384"
               x="115.21955"
               y="81.962997"
               id="use8340"
               width="100%"
               height="100%" />
            <use
               xlink:href="#symbol5761"
               x="120.31144"
               y="81.962997"
               id="use7095"
               width="100%"
               height="100%" />
            <use
               xlink:href="#symbol3620"
               x="123.49349"
               y="81.962997"
               id="use8046"
               width="100%"
               height="100%" />
            <use
               xlink:href="#symbol4778"
               x="129.8586"
               y="81.962997"
               id="use7357"
               width="100%"
               height="100%" />
            <use
               xlink:href="#symbol9516"
               x="133.35945"
               y="81.962997"
               id="use1789"
               width="100%"
               height="100%" />
          </g>
        </g>
      </g>
      <rect
         style="fill:none;stroke:#000000;stroke-width:0.264583;stroke-linecap:round;stroke-opacity:1"
         id="rect1145"
         width="58.003098"
         height="16.341948"
         x="17.219635"
         y="28.947275" />
    </g>
    <g
       id="g1281"
       transform="translate(87.841502,2.2570985)">
      <g
         inkscape:label=""
         transform="translate(18.737516,-44.771891)"
         id="g148">
        <g
           id="g3439">
          <g
             style="fill:#000000;fill-opacity:1"
             id="g8714">
            <use
               xlink:href="#symbol906"
               x="91.925003"
               y="81.962997"
               id="use6044"
               width="100%"
               height="100%" />
            <use
               xlink:href="#symbol6979"
               x="96.643288"
               y="81.962997"
               id="use6322"
               width="100%"
               height="100%" />
            <use
               xlink:href="#symbol1685"
               x="101.89458"
               y="81.962997"
               id="use9143"
               width="100%"
               height="100%" />
            <use
               xlink:href="#symbol5517"
               x="106.98646"
               y="81.962997"
               id="use457"
               width="100%"
               height="100%" />
            <use
               xlink:href="#symbol906"
               x="112.71495"
               y="81.962997"
               id="use5971"
               width="100%"
               height="100%" />
            <use
               xlink:href="#symbol4354"
               x="117.43324"
               y="81.962997"
               id="use3719"
               width="100%"
               height="100%" />
            <use
               xlink:href="#symbol5972"
               x="123.79835"
               y="81.962997"
               id="use2072"
               width="100%"
               height="100%" />
            <use
               xlink:href="#symbol4756"
               x="126.9804"
               y="81.962997"
               id="use5868"
               width="100%"
               height="100%" />
            <use
               xlink:href="#symbol6392"
               x="133.3455"
               y="81.962997"
               id="use1390"
               width="100%"
               height="100%" />
            <use
               xlink:href="#symbol1384"
               x="139.07401"
               y="81.962997"
               id="use4408"
               width="100%"
               height="100%" />
          </g>
        </g>
      </g>
      <rect
         style="fill:none;stroke:#000000;stroke-width:0.264583;stroke-linecap:round;stroke-miterlimit:4;stroke-dasharray:none;stroke-opacity:1"
         id="rect1145-3"
         width="60.730312"
         height="16.33585"
         x="106.12968"
         y="26.562244" />
    </g>
    <g
       id="g1482"
       transform="translate(27.522219,32.209118)">
      <g
         inkscape:label=""
         transform="translate(-3.2883612,-74.69266)"
         id="g1434">
        <g
           id="g1762">
          <g
             style="fill:#000000;fill-opacity:1"
             id="g1092">
            <use
               xlink:href="#symbol6302"
               x="91.925003"
               y="81.962997"
               id="use3119"
               width="100%"
               height="100%" />
            <use
               xlink:href="#symbol5923"
               x="96.126228"
               y="81.962997"
               id="use913"
               width="100%"
               height="100%" />
            <use
               xlink:href="#symbol9823"
               x="99.181755"
               y="81.962997"
               id="use9137"
               width="100%"
               height="100%" />
            <use
               xlink:href="#symbol8088"
               x="102.23729"
               y="81.962997"
               id="use9427"
               width="100%"
               height="100%" />
            <use
               xlink:href="#symbol6302"
               x="106.82008"
               y="81.962997"
               id="use293"
               width="100%"
               height="100%" />
            <use
               xlink:href="#symbol5923"
               x="111.02131"
               y="81.962997"
               id="use477"
               width="100%"
               height="100%" />
            <use
               xlink:href="#symbol5145"
               x="114.07684"
               y="81.962997"
               id="use7815"
               width="100%"
               height="100%" />
            <use
               xlink:href="#symbol5923"
               x="117.38641"
               y="81.962997"
               id="use755"
               width="100%"
               height="100%" />
          </g>
          <g
             style="fill:#000000;fill-opacity:1"
             id="g742">
            <use
               xlink:href="#symbol451"
               x="124.00856"
               y="81.962997"
               id="use1430"
               width="100%"
               height="100%" />
          </g>
        </g>
      </g>
      <rect
         style="opacity:1;fill:none;stroke:#000000;stroke-width:0.264583;stroke-linecap:round;stroke-miterlimit:4;stroke-dasharray:none;stroke-opacity:1"
         id="rect1466"
         width="37.478313"
         height="37.478313"
         x="54.077564"
         y="60.834888"
         transform="rotate(-45)" />
    </g>
    <path
       style="fill:none;stroke:#000000;stroke-width:0.264583px;stroke-linecap:butt;stroke-linejoin:miter;stroke-opacity:1"
       d="M 108.77759,36.987268 H 75.294362"
       id="path1484" />
    <path
       style="fill:none;stroke:#000000;stroke-width:0.264583px;stroke-linecap:butt;stroke-linejoin:miter;stroke-opacity:1"
       d="m 161.77993,36.987268 h 32.22101"
       id="path1486" />
    <g
       inkscape:label=""
       transform="translate(-6.3661412,-35.045965)"
       id="g1795">
      <g
         id="g1404">
        <g
           style="fill:#000000;fill-opacity:1"
           id="g6961">
          <use
             xlink:href="#symbol4284"
             x="91.925003"
             y="81.962997"
             id="use7768"
             width="100%"
             height="100%" />
          <use
             xlink:href="#symbol8902"
             x="96.906303"
             y="81.962997"
             id="use7042"
             width="100%"
             height="100%" />
        </g>
        <g
           style="fill:#000000;fill-opacity:1"
           id="g6210">
          <use
             xlink:href="#symbol6222"
             x="99.674004"
             y="81.962997"
             id="use3973"
             width="100%"
             height="100%" />
        </g>
      </g>
    </g>
    <g
       inkscape:label=""
       transform="translate(79.28141,-48.634852)"
       id="g1980">
      <g
         id="g3928">
        <g
           style="fill:#000000;fill-opacity:1"
           id="g9427">
          <use
             xlink:href="#symbol8477"
             x="91.925003"
             y="81.962997"
             id="use6144"
             width="100%"
             height="100%" />
          <use
             xlink:href="#symbol4129"
             x="96.906303"
             y="81.962997"
             id="use3521"
             width="100%"
             height="100%" />
          <use
             xlink:href="#symbol8477"
             x="99.673912"
             y="81.962997"
             id="use922"
             width="100%"
             height="100%" />
        </g>
      </g>
    </g>
  </g>
</svg>
