<?xml version="1.0" encoding="UTF-8" standalone="no"?>
<!-- Created with Inkscape (http://www.inkscape.org/) -->

<svg
   width="197.73997mm"
   height="31.03862mm"
   viewBox="0 0 197.73997 31.03862"
   version="1.1"
   id="svg5"
   xml:space="preserve"
   sodipodi:docname="webaudio_chain.svg"
   inkscape:version="1.2.2 (b0a8486541, 2022-12-01)"
   xmlns:inkscape="http://www.inkscape.org/namespaces/inkscape"
   xmlns:sodipodi="http://sodipodi.sourceforge.net/DTD/sodipodi-0.dtd"
   xmlns:xlink="http://www.w3.org/1999/xlink"
   xmlns="http://www.w3.org/2000/svg"
   xmlns:svg="http://www.w3.org/2000/svg"><sodipodi:namedview
     id="namedview7"
     pagecolor="#ffffff"
     bordercolor="#666666"
     borderopacity="1.0"
     inkscape:showpageshadow="2"
     inkscape:pageopacity="0.0"
     inkscape:pagecheckerboard="0"
     inkscape:deskcolor="#d1d1d1"
     inkscape:document-units="mm"
     showgrid="false"
     inkscape:zoom="0.5946522"
     inkscape:cx="254.77077"
     inkscape:cy="372.48664"
     inkscape:window-width="1440"
     inkscape:window-height="876"
     inkscape:window-x="0"
     inkscape:window-y="0"
     inkscape:window-maximized="1"
     inkscape:current-layer="layer1" /><defs
     id="defs2"><linearGradient
   inkscape:collect="always"
   id="linearGradient1161"><stop
     style="stop-color:#4fb8e5;stop-opacity:1;"
     offset="0"
     id="stop1157" /><stop
     style="stop-color:#4fb8e5;stop-opacity:0.8;"
     offset="0.5"
     id="stop1165" /><stop
     style="stop-color:#4fb8e5;stop-opacity:1;"
     offset="1"
     id="stop1159" /></linearGradient><clipPath
   id="clipPath3308">
      <path
   d="M 0,0 H 24 V 8.746094 H 0 Z m 0,0"
   id="path865" />
    </clipPath>
  <clipPath
   id="clipPath2243">
      <path
   d="M 0,0 H 28 V 10.492188 H 0 Z m 0,0"
   id="path6637" />
    </clipPath>
  <clipPath
   id="clipPath2849">
      <path
   d="M 0,0 H 38 V 15.109375 H 0 Z m 0,0"
   id="path5807" />
    </clipPath>
  <linearGradient
   inkscape:collect="always"
   xlink:href="#linearGradient1161"
   id="linearGradient1163"
   x1="15.221697"
   y1="34.241108"
   x2="49.923054"
   y2="34.241108"
   gradientUnits="userSpaceOnUse" /><linearGradient
   inkscape:collect="always"
   xlink:href="#linearGradient1161"
   id="linearGradient1277"
   gradientUnits="userSpaceOnUse"
   x1="15.221697"
   y1="34.241108"
   x2="49.923054"
   y2="34.241108"
   gradientTransform="translate(54.348606)" /><clipPath
   id="clipPath4677">
      <path
   d="M 1,0 H 42 V 16.933594 H 1 Z m 0,0"
   id="path3137" />
    </clipPath>
  <clipPath
   id="clipPath5865">
      <path
   d="M 1,0 H 43 V 16.933594 H 1 Z m 0,0"
   id="path2315" />
    </clipPath>
  <clipPath
   id="clipPath4677-2">
      <path
   d="M 1,0 H 42 V 16.933594 H 1 Z m 0,0"
   id="path3137-9" />
    </clipPath><linearGradient
   inkscape:collect="always"
   xlink:href="#linearGradient1161"
   id="linearGradient3917"
   gradientUnits="userSpaceOnUse"
   gradientTransform="translate(108.78415)"
   x1="15.221697"
   y1="34.241108"
   x2="49.923054"
   y2="34.241108" /><linearGradient
   inkscape:collect="always"
   xlink:href="#linearGradient1161"
   id="linearGradient4069"
   gradientUnits="userSpaceOnUse"
   gradientTransform="translate(163.03861)"
   x1="15.221697"
   y1="34.241108"
   x2="49.923054"
   y2="34.241108" /><clipPath
   id="clipPath2686">
      <path
   d="M 0,0 H 50.96875 V 15.109375 H 0 Z m 0,0"
   id="path8622" />
    </clipPath>
  </defs><g
     inkscape:label="Livello 1"
     inkscape:groupmode="layer"
     id="layer1"
     transform="translate(-15.221697,-22.075365)"><rect
       style="fill:url(#linearGradient1163);fill-opacity:1;stroke:#000000;stroke-width:0.264583;stroke-linecap:round;stroke-dasharray:none;stroke-dashoffset:0;stroke-opacity:1"
       id="rect358"
       width="34.436771"
       height="24.066904"
       x="15.353989"
       y="22.207657"
       ry="0" /><g
       style="fill:#000000"
       id="g146"
       transform="matrix(0.02940274,0,0,0.02940274,25.66273,27.331465)"><g
         id="g136">
	<path
   d="m 235,302.296 c 47.177,0 85.423,-38.245 85.423,-85.423 V 85.423 C 320.423,38.245 282.177,0 235,0 187.823,0 149.577,38.245 149.577,85.423 v 131.451 c 0,47.177 38.246,85.422 85.423,85.422 z"
   id="path132" />
	<path
   d="m 350.423,136.148 v 30 h 15 v 50.726 c 0,71.915 -58.508,130.423 -130.423,130.423 -71.915,0 -130.423,-58.507 -130.423,-130.423 v -50.726 h 15 v -30 h -45 v 80.726 C 74.577,300.273 138.551,369 220,376.589 V 440 h -90.444 v 30 H 340.445 V 440 H 250 V 376.589 C 331.449,369 395.423,300.272 395.423,216.873 v -80.726 h -45 z"
   id="path134" />
</g></g><g
       inkscape:label=""
       transform="translate(26.135135,47.782098)"
       id="g1106"><g
   id="surface1"
   transform="matrix(0.352778,0,0,0.352778,-0.286632,0.00163171)">
    <g
   clip-path="url(#clipPath2849)"
   clip-rule="nonzero"
   id="g39">
      <g
   style="fill:#000000;fill-opacity:1"
   id="g37">
        <g
   id="use27"
   transform="translate(0,11.761)">
          <path
   style="stroke:none"
   d="m 3.390625,-10.53125 c 0,-0.78125 0.203125,-0.78125 1.453125,-0.78125 v -0.453125 c -0.5625,0.04687 -1.4375,0.04687 -2.015625,0.04687 -0.59375,0 -1.46875,0 -2.015625,-0.04687 v 0.453125 c 1.234375,0 1.4375,0 1.4375,0.78125 v 9.3125 c 0,0.765625 -0.203125,0.765625 -1.4375,0.765625 V 0 c 0.546875,-0.03125 1.421875,-0.03125 2.015625,-0.03125 0.578125,0 1.453125,0 2.015625,0.03125 v -0.453125 c -1.25,0 -1.453125,0 -1.453125,-0.765625 z m 0,0"
   id="path46" />
        </g>
        <g
   id="use29"
   transform="translate(5.6397648,11.761)">
          <path
   style="stroke:none"
   d="m 7.140625,-5.234375 c 0,-0.875 -0.171875,-2.3125 -2.203125,-2.3125 -1.359375,0 -2.0625,1.0625 -2.3125,1.75 H 2.59375 v -1.75 l -2.03125,0.1875 v 0.453125 c 1.015625,0 1.171875,0.109375 1.171875,0.9375 v 4.78125 c 0,0.65625 -0.0625,0.734375 -1.171875,0.734375 V 0 c 0.421875,-0.03125 1.171875,-0.03125 1.625,-0.03125 0.453125,0 1.21875,0 1.640625,0.03125 v -0.453125 c -1.109375,0 -1.171875,-0.0625 -1.171875,-0.734375 V -4.5 c 0,-1.578125 0.953125,-2.765625 2.171875,-2.765625 1.265625,0 1.40625,1.140625 1.40625,1.96875 V -1.1875 c 0,0.65625 -0.0625,0.734375 -1.171875,0.734375 V 0 c 0.40625,-0.03125 1.171875,-0.03125 1.625,-0.03125 0.4375,0 1.21875,0 1.625,0.03125 v -0.453125 c -1.09375,0 -1.171875,-0.0625 -1.171875,-0.734375 z m 0,0"
   id="path50" />
        </g>
        <g
   id="use31"
   transform="translate(14.435113,11.761)">
          <path
   style="stroke:none"
   d="M 3.78125,2.90625 C 2.6875,2.90625 2.625,2.84375 2.625,2.171875 v -3.21875 c 0.484375,0.71875 1.21875,1.1875 2.125,1.1875 1.71875,0 3.46875,-1.515625 3.46875,-3.859375 0,-2.171875 -1.5,-3.828125 -3.28125,-3.828125 -1.03125,0 -1.875,0.578125 -2.359375,1.265625 v -1.265625 l -2.046875,0.1875 v 0.453125 c 1.015625,0 1.171875,0.109375 1.171875,0.9375 v 8.140625 c 0,0.65625 -0.0625,0.734375 -1.171875,0.734375 v 0.453125 c 0.421875,-0.03125 1.171875,-0.03125 1.625,-0.03125 0.4375,0 1.21875,0 1.625,0.03125 z M 2.625,-5.40625 c 0,-0.234375 0,-0.609375 0.65625,-1.234375 0.09375,-0.078125 0.671875,-0.59375 1.546875,-0.59375 1.25,0 2.28125,1.5625 2.28125,3.53125 0,1.96875 -1.09375,3.5625 -2.453125,3.5625 -0.625,0 -1.296875,-0.296875 -1.8125,-1.09375 C 2.625,-1.625 2.625,-1.71875 2.625,-2 Z m 0,0"
   id="path54" />
        </g>
        <g
   id="use33"
   transform="translate(23.230461,11.761)">
          <path
   style="stroke:none"
   d="m 5.0625,-7.359375 v 0.453125 c 1.015625,0 1.171875,0.109375 1.171875,0.9375 v 3.125 c 0,1.453125 -0.78125,2.703125 -2.046875,2.703125 -1.421875,0 -1.53125,-0.84375 -1.53125,-1.734375 v -5.671875 l -2.09375,0.1875 v 0.453125 c 0.6875,0 1.15625,0 1.171875,0.6875 v 3.3125 c 0,1.15625 0,1.890625 0.453125,2.375 0.21875,0.21875 0.65625,0.671875 1.890625,0.671875 1.46875,0 2.03125,-1.25 2.171875,-1.609375 H 6.265625 V 0.140625 L 8.3125,0 v -0.453125 c -1.015625,0 -1.171875,-0.09375 -1.171875,-0.921875 v -6.171875 z m 0,0"
   id="path58" />
        </g>
        <g
   id="use35"
   transform="translate(32.02581,11.761)">
          <path
   style="stroke:none"
   d="M 2.59375,-6.953125 H 5.015625 V -7.40625 H 2.59375 v -3.1875 H 2.296875 C 2.25,-8.8125 1.65625,-7.265625 0.1875,-7.234375 v 0.28125 h 1.5 V -2.125 c 0,0.328125 0,2.265625 2,2.265625 1.015625,0 1.59375,-1 1.59375,-2.28125 v -0.96875 h -0.3125 v 0.953125 c 0,1.1875 -0.453125,1.984375 -1.1875,1.984375 -0.5,0 -1.1875,-0.34375 -1.1875,-1.90625 z m 0,0"
   id="path62" />
        </g>
      </g>
    </g>
  </g>
</g><rect
       style="fill:url(#linearGradient1277);fill-opacity:1;stroke:#000000;stroke-width:0.264583;stroke-linecap:round;stroke-dasharray:none;stroke-dashoffset:0;stroke-opacity:1"
       id="rect358-5"
       width="34.436771"
       height="24.066904"
       x="69.702599"
       y="22.207657"
       ry="0" /><path
       style="fill:none;stroke:#000000;stroke-width:0.264583px;stroke-linecap:butt;stroke-linejoin:miter;stroke-opacity:1"
       d="M 49.898524,34.055351 H 69.617153"
       id="path1383" /><path
       style="fill:none;stroke:#000000;stroke-width:0.264583;stroke-linecap:butt;stroke-linejoin:miter;stroke-dasharray:none;stroke-opacity:1"
       d="m 67.611025,32.818474 2.053604,1.20047 -2.142457,1.31871"
       id="path1385" /><g
       inkscape:label=""
       transform="translate(79.802063,31.256348)"
       id="g2562"><g
   id="g2560"
   transform="matrix(0.352778,0,0,0.352778,-0.446484,-0.00427744)">
    <g
   clip-path="url(#clipPath4677)"
   clip-rule="nonzero"
   id="g29">
      <g
   style="fill:#000000;fill-opacity:1"
   id="g27">
        <g
   id="use21"
   transform="translate(0,16.934)">
          <path
   style="stroke:none"
   d="M 13.484375,-16.875 H 1.265625 v 0.640625 c 1.703125,0 1.984375,0 1.984375,1.125 v 13.34375 c 0,1.125 -0.28125,1.125 -1.984375,1.125 V 0 c 0.71875,-0.046875 2.109375,-0.046875 2.875,-0.046875 1.015625,0 2.203125,0 3.21875,0.046875 V -0.640625 H 6.8125 c -1.875,0 -1.9375,-0.25 -1.9375,-1.140625 V -8.125 h 2.234375 c 2.3125,0 2.53125,0.8125 2.53125,2.890625 h 0.453125 v -6.4375 H 9.640625 c 0,2.078125 -0.21875,2.90625 -2.53125,2.90625 H 4.875 v -6.5 c 0,-0.84375 0.0625,-0.96875 1.046875,-0.96875 H 9.125 c 3.734375,0 4.15625,1.546875 4.5,4.828125 h 0.453125 z m 0,0"
   id="path36" />
        </g>
        <g
   id="use23"
   transform="translate(14.924313,16.934)">
          <path
   style="stroke:none"
   d="m 9.046875,-9.390625 3.671875,-5.28125 C 13.078125,-15.1875 13.828125,-16.25 15.859375,-16.28125 v -0.640625 C 15.296875,-16.875 14.34375,-16.875 13.75,-16.875 c -0.8125,0 -1.828125,0 -2.453125,-0.04687 v 0.640625 c 0.796875,0.07813 1,0.5625 1,0.96875 0,0.296875 -0.125,0.5 -0.296875,0.734375 L 8.71875,-9.84375 5.0625,-15.1875 c -0.1875,-0.28125 -0.203125,-0.34375 -0.203125,-0.421875 0,-0.21875 0.265625,-0.640625 1.09375,-0.671875 v -0.640625 C 5.15625,-16.875 3.9375,-16.875 3.125,-16.875 c -0.640625,0 -1.890625,0 -2.484375,-0.04687 v 0.640625 c 1.359375,0 1.8125,0.04687 2.359375,0.8125 l 4.78125,7 -4.3125,6.265625 c -1.0625,1.53125 -2.671875,1.5625 -3.140625,1.5625 V 0 c 0.5625,-0.046875 1.5,-0.046875 2.09375,-0.046875 0.671875,0 1.84375,0 2.453125,0.046875 V -0.640625 C 4.109375,-0.71875 3.890625,-1.21875 3.890625,-1.609375 c 0,-0.328125 0.125,-0.5 0.25,-0.671875 l 3.96875,-5.75 4.3125,6.296875 c 0.1875,0.265625 0.1875,0.34375 0.1875,0.421875 0,0.203125 -0.21875,0.625 -1.09375,0.671875 V 0 c 0.796875,-0.046875 2.015625,-0.046875 2.828125,-0.046875 0.65625,0 1.890625,0 2.484375,0.046875 V -0.640625 C 15.234375,-0.640625 15,-0.765625 14.5,-1.46875 Z m 0,0"
   id="path40" />
        </g>
        <g
   id="use25"
   transform="translate(32.109207,16.934)">
          <path
   style="stroke:none"
   d="m 6.59375,-15.828125 c 0,-0.53125 -0.03125,-0.546875 -0.375,-0.546875 -0.96875,1.15625 -2.421875,1.53125 -3.8125,1.578125 -0.078125,0 -0.203125,0 -0.21875,0.04687 -0.03125,0.0625 -0.03125,0.109375 -0.03125,0.625 0.765625,0 2.0625,-0.15625 3.046875,-0.75 v 13.0625 c 0,0.875 -0.046875,1.171875 -2.1875,1.171875 H 2.28125 V 0 c 1.1875,-0.03125 2.421875,-0.046875 3.609375,-0.046875 1.203125,0 2.4375,0.015625 3.625,0.046875 v -0.640625 h -0.75 c -2.125,0 -2.171875,-0.28125 -2.171875,-1.171875 z m 0,0"
   id="path44" />
        </g>
      </g>
    </g>
  </g>
</g><rect
       style="fill:url(#linearGradient3917);fill-opacity:1;stroke:#000000;stroke-width:0.264583;stroke-linecap:round;stroke-dasharray:none;stroke-dashoffset:0;stroke-opacity:1"
       id="rect358-5-1"
       width="34.436771"
       height="24.066904"
       x="124.13815"
       y="22.207657"
       ry="0" /><rect
       style="fill:url(#linearGradient4069);fill-opacity:1;stroke:#000000;stroke-width:0.264583;stroke-linecap:round;stroke-dasharray:none;stroke-dashoffset:0;stroke-opacity:1"
       id="rect358-5-1-3"
       width="34.436771"
       height="24.066904"
       x="178.39261"
       y="22.207657"
       ry="0" /><path
       style="fill:none;stroke:#000000;stroke-width:0.264583px;stroke-linecap:butt;stroke-linejoin:miter;stroke-opacity:1"
       d="m 104.33406,34.241109 h 19.71863"
       id="path1383-2" /><path
       style="fill:none;stroke:#000000;stroke-width:0.264583;stroke-linecap:butt;stroke-linejoin:miter;stroke-dasharray:none;stroke-opacity:1"
       d="m 122.04657,32.982293 2.0536,1.20047 -2.14246,1.31871"
       id="path1385-7" /><g
       inkscape:label=""
       transform="translate(134.0943,31.256348)"
       id="g3422"><g
   id="g3420"
   transform="matrix(0.352778,0,0,0.352778,-0.446484,-0.00427744)">
    <g
   clip-path="url(#clipPath5865)"
   clip-rule="nonzero"
   id="g3418">
      <g
   style="fill:#000000;fill-opacity:1"
   id="g3416">
        <g
   id="g3406"
   transform="translate(0,16.934)">
          <path
   style="stroke:none"
   d="M 13.484375,-16.875 H 1.265625 v 0.640625 c 1.703125,0 1.984375,0 1.984375,1.125 v 13.34375 c 0,1.125 -0.28125,1.125 -1.984375,1.125 V 0 c 0.71875,-0.046875 2.109375,-0.046875 2.875,-0.046875 1.015625,0 2.203125,0 3.21875,0.046875 V -0.640625 H 6.8125 c -1.875,0 -1.9375,-0.25 -1.9375,-1.140625 V -8.125 h 2.234375 c 2.3125,0 2.53125,0.8125 2.53125,2.890625 h 0.453125 v -6.4375 H 9.640625 c 0,2.078125 -0.21875,2.90625 -2.53125,2.90625 H 4.875 v -6.5 c 0,-0.84375 0.0625,-0.96875 1.046875,-0.96875 H 9.125 c 3.734375,0 4.15625,1.546875 4.5,4.828125 h 0.453125 z m 0,0"
   id="path3404" />
        </g>
        <g
   id="g3410"
   transform="translate(14.924313,16.934)">
          <path
   style="stroke:none"
   d="m 9.046875,-9.390625 3.671875,-5.28125 C 13.078125,-15.1875 13.828125,-16.25 15.859375,-16.28125 v -0.640625 C 15.296875,-16.875 14.34375,-16.875 13.75,-16.875 c -0.8125,0 -1.828125,0 -2.453125,-0.04687 v 0.640625 c 0.796875,0.07813 1,0.5625 1,0.96875 0,0.296875 -0.125,0.5 -0.296875,0.734375 L 8.71875,-9.84375 5.0625,-15.1875 c -0.1875,-0.28125 -0.203125,-0.34375 -0.203125,-0.421875 0,-0.21875 0.265625,-0.640625 1.09375,-0.671875 v -0.640625 C 5.15625,-16.875 3.9375,-16.875 3.125,-16.875 c -0.640625,0 -1.890625,0 -2.484375,-0.04687 v 0.640625 c 1.359375,0 1.8125,0.04687 2.359375,0.8125 l 4.78125,7 -4.3125,6.265625 c -1.0625,1.53125 -2.671875,1.5625 -3.140625,1.5625 V 0 c 0.5625,-0.046875 1.5,-0.046875 2.09375,-0.046875 0.671875,0 1.84375,0 2.453125,0.046875 V -0.640625 C 4.109375,-0.71875 3.890625,-1.21875 3.890625,-1.609375 c 0,-0.328125 0.125,-0.5 0.25,-0.671875 l 3.96875,-5.75 4.3125,6.296875 c 0.1875,0.265625 0.1875,0.34375 0.1875,0.421875 0,0.203125 -0.21875,0.625 -1.09375,0.671875 V 0 c 0.796875,-0.046875 2.015625,-0.046875 2.828125,-0.046875 0.65625,0 1.890625,0 2.484375,0.046875 V -0.640625 C 15.234375,-0.640625 15,-0.765625 14.5,-1.46875 Z m 0,0"
   id="path3408" />
        </g>
        <g
   id="g3414"
   transform="translate(32.109207,16.934)">
          <path
   style="stroke:none"
   d="m 10.328125,-3.84375 h -0.4375 C 9.640625,-2.078125 9.4375,-1.78125 9.34375,-1.640625 9.21875,-1.4375 7.4375,-1.4375 7.09375,-1.4375 H 2.328125 c 0.890625,-0.96875 2.625,-2.71875 4.734375,-4.75 1.515625,-1.4375 3.265625,-3.125 3.265625,-5.578125 C 10.328125,-14.6875 8,-16.375 5.40625,-16.375 c -2.734375,0 -4.390625,2.390625 -4.390625,4.625 0,0.96875 0.71875,1.09375 1.015625,1.09375 0.25,0 0.984375,-0.140625 0.984375,-1.015625 0,-0.765625 -0.640625,-0.984375 -0.984375,-0.984375 -0.140625,0 -0.296875,0.01563 -0.390625,0.0625 0.46875,-2.09375 1.90625,-3.140625 3.421875,-3.140625 2.15625,0 3.5625,1.703125 3.5625,3.96875 0,2.15625 -1.265625,4.015625 -2.671875,5.625 L 1.015625,-0.5625 V 0 h 8.71875 z m 0,0"
   id="path3412" />
        </g>
      </g>
    </g>
  </g>
</g><g
       id="g3944"
       transform="matrix(0.18925684,0,0,0.18925684,189.55478,28.184912)"
       style="fill:#000000;fill-opacity:1">
	<path
   fill="#231f20"
   d="M 61,29 H 49 c -1.657,0 -3,1.344 -3,3 0,1.656 1.343,3 3,3 h 12 c 1.657,0 3,-1.344 3,-3 0,-1.656 -1.343,-3 -3,-3 z"
   id="path3932"
   style="fill:#000000;fill-opacity:1" />
	<path
   fill="#231f20"
   d="M 59.312,44.57 48.037,40.466 c -1.559,-0.566 -3.279,0.236 -3.846,1.793 -0.566,1.555 0.235,3.277 1.793,3.844 l 11.276,4.105 c 1.558,0.566 3.278,-0.238 3.845,-1.793 0.567,-1.556 -0.235,-3.278 -1.793,-3.845 z"
   id="path3934"
   style="fill:#000000;fill-opacity:1" />
	<path
   fill="#231f20"
   d="m 48.036,23.531 11.276,-4.104 c 1.557,-0.566 2.359,-2.289 1.793,-3.843 -0.566,-1.558 -2.288,-2.362 -3.846,-1.796 l -11.275,4.106 c -1.559,0.566 -2.36,2.289 -1.794,3.846 0.567,1.555 2.289,2.358 3.846,1.791 z"
   id="path3936"
   style="fill:#000000;fill-opacity:1" />
	<path
   fill="#231f20"
   d="m 8,48 c 1.257,0 2.664,0 4,0 V 16 c -1.342,0.002 -2.747,0.002 -4,0.002 z"
   id="path3938"
   style="fill:#000000;fill-opacity:1" />
	<path
   fill="#231f20"
   d="M 0,20.002 V 44 c 0,2.211 1.789,4 4,4 0,0 0.797,0 2,0 V 16.002 c -1.204,0 -2,0 -2,0 -2.211,0 -4,1.789 -4,4 z"
   id="path3940"
   style="fill:#000000;fill-opacity:1" />
	<path
   fill="#231f20"
   d="M 37.531,0.307 C 36.039,-0.318 34.32,0.03 33.172,1.174 L 18.859,15.486 c 0,0 -0.422,0.515 -1.359,0.515 -0.365,0 -1.75,0 -3.5,0 v 32 c 1.779,0 3.141,0 3.344,0 0.656,0 1.107,0.107 1.671,0.67 0.563,0.564 14.157,14.158 14.157,14.158 C 33.938,63.594 34.961,64 36,64 36.516,64 37.035,63.902 37.531,63.695 39.027,63.078 40,61.617 40,60 V 4.002 C 40,2.385 39.027,0.924 37.531,0.307 Z"
   id="path3942"
   style="fill:#000000;fill-opacity:1" />
</g><path
       style="fill:none;stroke:#000000;stroke-width:0.264583px;stroke-linecap:butt;stroke-linejoin:miter;stroke-opacity:1"
       d="m 158.5325,34.241109 h 19.71863"
       id="path1383-2-7" /><path
       style="fill:none;stroke:#000000;stroke-width:0.264583;stroke-linecap:butt;stroke-linejoin:miter;stroke-dasharray:none;stroke-opacity:1"
       d="m 176.24501,32.982293 2.0536,1.20047 -2.14246,1.31871"
       id="path1385-7-9" /><g
       inkscape:label=""
       transform="translate(186.90478,47.688391)"
       id="g4246"><g
   id="g4244"
   transform="matrix(0.352778,0,0,0.352778,-0.28112,0.0953383)">
    <g
   clip-path="url(#clipPath2686)"
   clip-rule="nonzero"
   id="g38">
      <g
   style="fill:#000000;fill-opacity:1"
   id="g36">
        <g
   id="use24"
   transform="translate(0,11.761)">
          <path
   style="stroke:none"
   d="m 11.59375,-5.859375 c 0,-3.53125 -2.53125,-6.171875 -5.390625,-6.171875 -2.9375,0 -5.40625,2.6875 -5.40625,6.171875 0,3.5 2.515625,6.140625 5.390625,6.140625 2.9375,0 5.40625,-2.6875 5.40625,-6.140625 z M 6.203125,-0.03125 C 4.234375,-0.03125 2.09375,-2 2.09375,-6.078125 c 0,-4.0625 2.34375,-5.640625 4.09375,-5.640625 1.8125,0 4.09375,1.625 4.09375,5.640625 0,4.15625 -2.1875,6.046875 -4.078125,6.046875 z m 0,0"
   id="path45" />
        </g>
        <g
   id="use26"
   transform="translate(12.391645,11.761)">
          <path
   style="stroke:none"
   d="m 5.0625,-7.359375 v 0.453125 c 1.015625,0 1.171875,0.109375 1.171875,0.9375 v 3.125 c 0,1.453125 -0.78125,2.703125 -2.046875,2.703125 -1.421875,0 -1.53125,-0.84375 -1.53125,-1.734375 v -5.671875 l -2.09375,0.1875 v 0.453125 c 0.6875,0 1.15625,0 1.171875,0.6875 v 3.3125 c 0,1.15625 0,1.890625 0.453125,2.375 0.21875,0.21875 0.65625,0.671875 1.890625,0.671875 1.46875,0 2.03125,-1.25 2.171875,-1.609375 H 6.265625 V 0.140625 L 8.3125,0 v -0.453125 c -1.015625,0 -1.171875,-0.09375 -1.171875,-0.921875 v -6.171875 z m 0,0"
   id="path49" />
        </g>
        <g
   id="use28"
   transform="translate(21.186993,11.761)">
          <path
   style="stroke:none"
   d="M 2.59375,-6.953125 H 5.015625 V -7.40625 H 2.59375 v -3.1875 H 2.296875 C 2.25,-8.8125 1.65625,-7.265625 0.1875,-7.234375 v 0.28125 h 1.5 V -2.125 c 0,0.328125 0,2.265625 2,2.265625 1.015625,0 1.59375,-1 1.59375,-2.28125 v -0.96875 h -0.3125 v 0.953125 c 0,1.1875 -0.453125,1.984375 -1.1875,1.984375 -0.5,0 -1.1875,-0.34375 -1.1875,-1.90625 z m 0,0"
   id="path53" />
        </g>
        <g
   id="use30"
   transform="translate(27.282967,11.761)">
          <path
   style="stroke:none"
   d="M 3.78125,2.90625 C 2.6875,2.90625 2.625,2.84375 2.625,2.171875 v -3.21875 c 0.484375,0.71875 1.21875,1.1875 2.125,1.1875 1.71875,0 3.46875,-1.515625 3.46875,-3.859375 0,-2.171875 -1.5,-3.828125 -3.28125,-3.828125 -1.03125,0 -1.875,0.578125 -2.359375,1.265625 v -1.265625 l -2.046875,0.1875 v 0.453125 c 1.015625,0 1.171875,0.109375 1.171875,0.9375 v 8.140625 c 0,0.65625 -0.0625,0.734375 -1.171875,0.734375 v 0.453125 c 0.421875,-0.03125 1.171875,-0.03125 1.625,-0.03125 0.4375,0 1.21875,0 1.625,0.03125 z M 2.625,-5.40625 c 0,-0.234375 0,-0.609375 0.65625,-1.234375 0.09375,-0.078125 0.671875,-0.59375 1.546875,-0.59375 1.25,0 2.28125,1.5625 2.28125,3.53125 0,1.96875 -1.09375,3.5625 -2.453125,3.5625 -0.625,0 -1.296875,-0.296875 -1.8125,-1.09375 C 2.625,-1.625 2.625,-1.71875 2.625,-2 Z m 0,0"
   id="path57" />
        </g>
        <g
   id="use32"
   transform="translate(36.078316,11.761)">
          <path
   style="stroke:none"
   d="m 5.0625,-7.359375 v 0.453125 c 1.015625,0 1.171875,0.109375 1.171875,0.9375 v 3.125 c 0,1.453125 -0.78125,2.703125 -2.046875,2.703125 -1.421875,0 -1.53125,-0.84375 -1.53125,-1.734375 v -5.671875 l -2.09375,0.1875 v 0.453125 c 0.6875,0 1.15625,0 1.171875,0.6875 v 3.3125 c 0,1.15625 0,1.890625 0.453125,2.375 0.21875,0.21875 0.65625,0.671875 1.890625,0.671875 1.46875,0 2.03125,-1.25 2.171875,-1.609375 H 6.265625 V 0.140625 L 8.3125,0 v -0.453125 c -1.015625,0 -1.171875,-0.09375 -1.171875,-0.921875 v -6.171875 z m 0,0"
   id="path61" />
        </g>
        <g
   id="use34"
   transform="translate(44.873661,11.761)">
          <path
   style="stroke:none"
   d="M 2.59375,-6.953125 H 5.015625 V -7.40625 H 2.59375 v -3.1875 H 2.296875 C 2.25,-8.8125 1.65625,-7.265625 0.1875,-7.234375 v 0.28125 h 1.5 V -2.125 c 0,0.328125 0,2.265625 2,2.265625 1.015625,0 1.59375,-1 1.59375,-2.28125 v -0.96875 h -0.3125 v 0.953125 c 0,1.1875 -0.453125,1.984375 -1.1875,1.984375 -0.5,0 -1.1875,-0.34375 -1.1875,-1.90625 z m 0,0"
   id="path65" />
        </g>
      </g>
    </g>
  </g>
</g></g></svg>
